ffmpeg started on 2016-12-06 at 08:17:50
Report written to "Output/x264/results/ffmpeg/sintelfast8000k.log"
Command line:
Tools/ffmpeg/ffmpeg -benchmark -y -i Input/y4m/sintel.y4m -c:v libx264 -preset fast -b:v 8000k -an Output/x264/encoded/sintelfast8000k.mkv
ffmpeg version N-82227-gdb23fde Copyright (c) 2000-2016 the FFmpeg developers
  built with gcc 5.4.0 (Ubuntu 5.4.0-6ubuntu1~16.04.2) 20160609
  configuration: --prefix=/home/jaroslav/ffmpeg_build --pkg-config-flags=--static --extra-cflags=-I/home/jaroslav/ffmpeg_build/include --extra-ldflags=-L/home/jaroslav/ffmpeg_build/lib --bindir=/home/jaroslav/bin --enable-gpl --enable-libass --enable-libfdk-aac --enable-libfreetype --enable-libmp3lame --enable-libopus --enable-libtheora --enable-libvorbis --enable-libvpx --enable-libx264 --enable-libx265 --enable-nvenc --enable-libmfx --enable-libxvid --enable-libgsm --enable-libopencore-amrnb --enable-version3 --enable-nonfree
  libavutil      55. 35.100 / 55. 35.100
  libavcodec     57. 66.101 / 57. 66.101
  libavformat    57. 57.100 / 57. 57.100
  libavdevice    57.  2.100 / 57.  2.100
  libavfilter     6. 66.100 /  6. 66.100
  libswscale      4.  3.100 /  4.  3.100
  libswresample   2.  4.100 /  2.  4.100
  libpostproc    54.  2.100 / 54.  2.100
Input #0, yuv4mpegpipe, from 'Input/y4m/sintel.y4m':
  Duration: 00:00:20.83, start: 0.000000, bitrate: 2057307 kb/s
    Stream #0:0: Video: rawvideo (I420 / 0x30323449), yuv420p(progressive), 4096x1744, SAR 1:1 DAR 256:109, 24 fps, 24 tbr, 24 tbn, 24 tbc
[libx264 @ 0x3e0b120] using SAR=1/1
[libx264 @ 0x3e0b120] using cpu capabilities: MMX2 SSE2Fast SSSE3 SSE4.2 AVX FMA3 AVX2 LZCNT BMI2
[libx264 @ 0x3e0b120] profile High, level 5.1
[libx264 @ 0x3e0b120] 264 - core 148 - H.264/MPEG-4 AVC codec - Copyleft 2003-2016 - http://www.videolan.org/x264.html - options: cabac=1 ref=2 deblock=1:0:0 analyse=0x3:0x113 me=hex subme=6 psy=1 psy_rd=1.00:0.00 mixed_ref=1 me_range=16 chroma_me=1 trellis=1 8x8dct=1 cqm=0 deadzone=21,11 fast_pskip=1 chroma_qp_offset=-2 threads=6 lookahead_threads=1 sliced_threads=0 nr=0 decimate=1 interlaced=0 bluray_compat=0 constrained_intra=0 bframes=3 b_pyramid=2 b_adapt=1 b_bias=0 direct=1 weightb=1 open_gop=0 weightp=1 keyint=250 keyint_min=24 scenecut=40 intra_refresh=0 rc_lookahead=30 rc=abr mbtree=1 bitrate=8000 ratetol=1.0 qcomp=0.60 qpmin=0 qpmax=69 qpstep=4 ip_ratio=1.40 aq=1:1.00
Output #0, matroska, to 'Output/x264/encoded/sintelfast8000k.mkv':
  Metadata:
    encoder         : Lavf57.57.100
    Stream #0:0: Video: h264 (libx264) (H264 / 0x34363248), yuv420p, 4096x1744 [SAR 1:1 DAR 256:109], q=-1--1, 8000 kb/s, 24 fps, 1k tbn, 24 tbc
    Metadata:
      encoder         : Lavc57.66.101 libx264
    Side data:
      cpb: bitrate max/min/avg: 0/0/8000000 buffer size: 0 vbv_delay: -1
Stream mapping:
  Stream #0:0 -> #0:0 (rawvideo (native) -> h264 (libx264))
Press [q] to stop, [?] for help
frame=    5 fps=0.0 q=0.0 size=       0kB time=00:00:00.00 bitrate=N/A speed=   0x    frame=   14 fps= 13 q=0.0 size=       0kB time=00:00:00.00 bitrate=N/A speed=   0x    frame=   19 fps= 12 q=0.0 size=       0kB time=00:00:00.00 bitrate=N/A speed=   0x    frame=   28 fps= 13 q=0.0 size=       0kB time=00:00:00.00 bitrate=N/A speed=   0x    frame=   37 fps=8.7 q=0.0 size=       0kB time=00:00:00.00 bitrate=N/A speed=   0x    frame=   43 fps=8.6 q=27.0 size=       1kB time=00:00:00.00 bitrate=5872.0kbits/s speed=0.000201x    frame=   44 fps=5.4 q=36.0 size=       1kB time=00:00:00.04 bitrate= 136.6kbits/s speed=0.00525x    frame=   45 fps=4.9 q=30.0 size=       1kB time=00:00:00.08 bitrate=  69.9kbits/s speed=0.0091x    frame=   50 fps=5.1 q=45.0 size=       1kB time=00:00:00.29 bitrate=  20.0kbits/s speed=0.0299x    frame=   57 fps=5.5 q=45.0 size=       1kB time=00:00:00.58 bitrate=  10.1kbits/s speed=0.0563x    frame=   62 fps=5.7 q=45.0 size=       1kB time=00:00:00.79 bitrate=   7.4kbits/s speed=0.0726x    frame=   68 fps=5.9 q=44.0 size=       1kB time=00:00:01.04 bitrate=   5.6kbits/s speed=0.091x    frame=   74 fps=6.2 q=43.0 size=       1kB time=00:00:01.29 bitrate=   4.5kbits/s speed=0.108x    frame=   81 fps=6.4 q=42.0 size=       1kB time=00:00:01.58 bitrate=   3.7kbits/s speed=0.126x    frame=   89 fps=6.7 q=42.0 size=       1kB time=00:00:01.91 bitrate=   3.1kbits/s speed=0.145x    frame=   95 fps=6.9 q=41.0 size=       1kB time=00:00:02.16 bitrate=   2.7kbits/s speed=0.158x    frame=  100 fps=7.0 q=41.0 size=       1kB time=00:00:02.37 bitrate=   2.5kbits/s speed=0.167x    frame=  106 fps=7.2 q=41.0 size=       1kB time=00:00:02.62 bitrate=   2.2kbits/s speed=0.177x    frame=  112 fps=7.2 q=41.0 size=       1kB time=00:00:02.87 bitrate=   2.0kbits/s speed=0.186x    frame=  117 fps=7.3 q=40.0 size=       1kB time=00:00:03.08 bitrate=   1.9kbits/s speed=0.193x    frame=  122 fps=7.4 q=40.0 size=       1kB time=00:00:03.29 bitrate=   1.8kbits/s speed=0.199x    frame=  128 fps=7.5 q=40.0 size=       1kB time=00:00:03.54 bitrate=   1.7kbits/s speed=0.208x    frame=  133 fps=7.6 q=40.0 size=       1kB time=00:00:03.75 bitrate=   1.6kbits/s speed=0.213x    frame=  140 fps=7.7 q=39.0 size=    4329kB time=00:00:04.04 bitrate=8772.1kbits/s speed=0.223x    frame=  144 fps=7.7 q=39.0 size=    4329kB time=00:00:04.20 bitrate=8426.1kbits/s speed=0.226x    frame=  150 fps=7.8 q=39.0 size=    4329kB time=00:00:04.45 bitrate=7953.7kbits/s speed=0.233x    frame=  156 fps=7.9 q=39.0 size=    4329kB time=00:00:04.70 bitrate=7531.5kbits/s speed=0.239x    frame=  162 fps=8.0 q=39.0 size=    4329kB time=00:00:04.95 bitrate=7151.8kbits/s speed=0.245x    frame=  169 fps=8.1 q=39.0 size=    4329kB time=00:00:05.25 bitrate=6754.1kbits/s speed=0.251x    frame=  176 fps=8.2 q=39.0 size=    4329kB time=00:00:05.54 bitrate=6398.3kbits/s speed=0.257x    frame=  183 fps=8.3 q=39.0 size=    4329kB time=00:00:05.83 bitrate=6079.1kbits/s speed=0.264x    frame=  189 fps=8.4 q=39.0 size=    4329kB time=00:00:06.08 bitrate=5829.3kbits/s speed=0.269x    frame=  196 fps=8.5 q=39.0 size=    4329kB time=00:00:06.37 bitrate=5562.4kbits/s speed=0.276x    frame=  202 fps=8.5 q=38.0 size=    6468kB time=00:00:06.62 bitrate=7996.7kbits/s speed=0.28x    frame=  208 fps=8.6 q=38.0 size=    6468kB time=00:00:06.87 bitrate=7706.0kbits/s speed=0.284x    frame=  214 fps=8.6 q=38.0 size=    6468kB time=00:00:07.12 bitrate=7435.6kbits/s speed=0.288x    frame=  222 fps=8.7 q=38.0 size=    6468kB time=00:00:07.45 bitrate=7103.7kbits/s speed=0.292x    frame=  231 fps=8.8 q=38.0 size=    7324kB time=00:00:07.83 bitrate=7658.7kbits/s speed=0.299x    frame=  239 fps=8.9 q=37.0 size=    7324kB time=00:00:08.16 bitrate=7345.5kbits/s speed=0.304x    frame=  246 fps=8.9 q=37.0 size=    7324kB time=00:00:08.45 bitrate=7092.8kbits/s speed=0.307x    frame=  254 fps=9.0 q=37.0 size=    7324kB time=00:00:08.79 bitrate=6823.4kbits/s speed=0.311x    frame=  261 fps=9.1 q=37.0 size=    7324kB time=00:00:09.08 bitrate=6604.8kbits/s speed=0.315x    frame=  268 fps=9.1 q=37.0 size=    7324kB time=00:00:09.37 bitrate=6399.1kbits/s speed=0.319x    frame=  274 fps=9.1 q=37.0 size=    7324kB time=00:00:09.62 bitrate=6232.9kbits/s speed=0.321x    frame=  282 fps=9.2 q=37.0 size=    7324kB time=00:00:09.95 bitrate=6024.5kbits/s speed=0.324x    frame=  290 fps=9.3 q=37.0 size=    7324kB time=00:00:10.29 bitrate=5829.0kbits/s speed=0.329x    frame=  297 fps=9.3 q=36.0 size=    7324kB time=00:00:10.58 bitrate=5668.8kbits/s speed=0.333x    frame=  302 fps=9.3 q=36.0 size=    7324kB time=00:00:10.79 bitrate=5559.0kbits/s speed=0.331x    frame=  312 fps=9.4 q=36.0 size=    9979kB time=00:00:11.20 bitrate=7293.0kbits/s speed=0.337x    frame=  320 fps=9.4 q=36.0 size=    9979kB time=00:00:11.54 bitrate=7081.9kbits/s speed=0.341x    frame=  328 fps=9.5 q=36.0 size=    9979kB time=00:00:11.87 bitrate=6883.4kbits/s speed=0.343x    frame=  337 fps=9.6 q=36.0 size=    9979kB time=00:00:12.25 bitrate=6672.7kbits/s speed=0.348x    frame=  346 fps=9.7 q=35.0 size=    9979kB time=00:00:12.62 bitrate=6474.5kbits/s speed=0.354x    frame=  354 fps=9.8 q=35.0 size=    9979kB time=00:00:12.95 bitrate=6308.1kbits/s speed=0.358x    frame=  362 fps=9.9 q=34.0 size=    9979kB time=00:00:13.29 bitrate=6149.6kbits/s speed=0.362x    frame=  370 fps=9.9 q=34.0 size=    9979kB time=00:00:13.62 bitrate=5999.3kbits/s speed=0.366x    frame=  378 fps= 10 q=34.0 size=    9979kB time=00:00:13.95 bitrate=5856.2kbits/s speed=0.369x    frame=  386 fps= 10 q=33.0 size=    9979kB time=00:00:14.29 bitrate=5719.4kbits/s speed=0.373x    frame=  394 fps= 10 q=33.0 size=    9979kB time=00:00:14.62 bitrate=5589.1kbits/s speed=0.377x    frame=  403 fps= 10 q=33.0 size=   12363kB time=00:00:15.00 bitrate=6751.2kbits/s speed=0.38x    frame=  408 fps= 10 q=33.0 size=   12363kB time=00:00:15.20 bitrate=6658.9kbits/s speed=0.38x    frame=  415 fps= 10 q=33.0 size=   12363kB time=00:00:15.50 bitrate=6533.4kbits/s speed=0.382x    frame=  421 fps= 10 q=33.0 size=   12363kB time=00:00:15.75 bitrate=6429.7kbits/s speed=0.382x    frame=  428 fps= 10 q=33.0 size=   12363kB time=00:00:16.04 bitrate=6312.7kbits/s speed=0.383x    frame=  435 fps= 10 q=33.0 size=   12363kB time=00:00:16.33 bitrate=6200.2kbits/s speed=0.384x    frame=  441 fps= 10 q=33.0 size=   12363kB time=00:00:16.58 bitrate=6106.8kbits/s speed=0.385x    frame=  447 fps= 10 q=33.0 size=   12363kB time=00:00:16.83 bitrate=6016.1kbits/s speed=0.386x    frame=  453 fps= 10 q=33.0 size=   12363kB time=00:00:17.08 bitrate=5928.1kbits/s speed=0.387x    frame=  461 fps= 10 q=33.0 size=   14695kB time=00:00:17.41 bitrate=6911.5kbits/s speed=0.39x    frame=  465 fps= 10 q=33.0 size=   14695kB time=00:00:17.58 bitrate=6846.3kbits/s speed=0.389x    frame=  471 fps= 10 q=33.0 size=   14695kB time=00:00:17.83 bitrate=6750.3kbits/s speed=0.39x    frame=  479 fps= 10 q=33.0 size=   14695kB time=00:00:18.16 bitrate=6626.2kbits/s speed=0.393x    frame=  486 fps= 10 q=33.0 size=   14695kB time=00:00:18.45 bitrate=6521.7kbits/s speed=0.395x    frame=  492 fps= 10 q=33.0 size=   14695kB time=00:00:18.70 bitrate=6434.6kbits/s speed=0.395x    frame=  500 fps= 10 q=33.0 size=   14695kB time=00:00:19.04 bitrate=6321.7kbits/s speed=0.398x    frame=  500 fps=9.9 q=-1.0 Lsize=   17795kB time=00:00:20.70 bitrate=7039.2kbits/s speed=0.412x    
video:17790kB audio:0kB subtitle:0kB other streams:0kB global headers:0kB muxing overhead: 0.027222%
bench: utime=161.584s
bench: maxrss=1324444kB
[libx264 @ 0x3e0b120] frame I:8     Avg QP:27.73  size:120177
[libx264 @ 0x3e0b120] frame P:269   Avg QP:33.01  size: 41570
[libx264 @ 0x3e0b120] frame B:223   Avg QP:30.50  size: 27230
[libx264 @ 0x3e0b120] consecutive B-frames: 37.0%  8.4%  6.6% 48.0%
[libx264 @ 0x3e0b120] mb I  I16..4: 26.8% 69.3%  3.8%
[libx264 @ 0x3e0b120] mb P  I16..4: 19.0% 22.3%  0.3%  P16..4: 20.4%  2.0%  0.7%  0.0%  0.0%    skip:35.4%
[libx264 @ 0x3e0b120] mb B  I16..4:  6.7%  6.2%  0.3%  B16..8: 16.1%  1.8%  0.0%  direct: 7.5%  skip:61.3%  L0:42.6% L1:53.1% BI: 4.3%
[libx264 @ 0x3e0b120] final ratefactor: 29.83
[libx264 @ 0x3e0b120] 8x8 transform intra:53.2% inter:90.0%
[libx264 @ 0x3e0b120] coded y,uvDC,uvAC intra: 13.7% 21.4% 1.3% inter: 5.2% 5.2% 0.0%
[libx264 @ 0x3e0b120] i16 v,h,dc,p: 34% 31%  9% 25%
[libx264 @ 0x3e0b120] i8 v,h,dc,ddl,ddr,vr,hd,vl,hu: 22% 16% 46%  3%  2%  2%  3%  2%  3%
[libx264 @ 0x3e0b120] i4 v,h,dc,ddl,ddr,vr,hd,vl,hu: 18% 24% 11%  7% 11%  7% 11%  4%  7%
[libx264 @ 0x3e0b120] i8c dc,h,v,p: 78% 11% 10%  1%
[libx264 @ 0x3e0b120] Weighted P-Frames: Y:0.7% UV:0.0%
[libx264 @ 0x3e0b120] ref P L0: 83.3% 16.7%
[libx264 @ 0x3e0b120] ref B L0: 87.2% 12.8%
[libx264 @ 0x3e0b120] ref B L1: 97.1%  2.9%
[libx264 @ 0x3e0b120] kb/s:6994.97
